<svg xmlns="http://www.w3.org/2000/svg" width="20.571" height="20.732" viewBox="0 0 20.571 20.732">
  <path id="Vector" d="M13.192,11.411A6.1,6.1,0,0,1,14.5,12a5.8,5.8,0,0,1,1.2.71.571.571,0,0,1,.027.2,2.822,2.822,0,0,1-.228,1.018,1.8,1.8,0,0,1-.951.877,3.172,3.172,0,0,1-1.366.355,7.233,7.233,0,0,1-2.545-.83,7.643,7.643,0,0,1-2.277-1.58,17.647,17.647,0,0,1-1.982-2.478,4.687,4.687,0,0,1-.951-2.6V7.567a2.96,2.96,0,0,1,.991-2.116,1.013,1.013,0,0,1,.7-.295,2.131,2.131,0,0,1,.241.02,2.17,2.17,0,0,0,.254.02.55.55,0,0,1,.355.087.969.969,0,0,1,.208.368q.107.268.442,1.179a7.828,7.828,0,0,1,.335,1,1.359,1.359,0,0,1-.462.77q-.462.489-.462.623a.383.383,0,0,0,.067.2,6.03,6.03,0,0,0,1.366,1.835,8.54,8.54,0,0,0,2.022,1.353.594.594,0,0,0,.295.094q.2,0,.723-.65T13.192,11.411Zm-2.719,7.1a8.185,8.185,0,0,0,3.261-.67,8.282,8.282,0,0,0,4.48-4.48,8.276,8.276,0,0,0,0-6.522,8.282,8.282,0,0,0-4.48-4.48,8.276,8.276,0,0,0-6.522,0,8.282,8.282,0,0,0-4.48,4.48,8.328,8.328,0,0,0,.938,8.19L2.612,18.147l3.241-1.031A8.235,8.235,0,0,0,10.473,18.509ZM10.473,0a9.812,9.812,0,0,1,3.917.8,9.978,9.978,0,0,1,5.377,5.377,9.95,9.95,0,0,1,0,7.835,9.978,9.978,0,0,1-5.377,5.377,9.812,9.812,0,0,1-3.917.8,9.943,9.943,0,0,1-4.888-1.259L0,20.732l1.821-5.424a10.04,10.04,0,0,1-.643-9.127A9.978,9.978,0,0,1,6.556.8,9.812,9.812,0,0,1,10.473,0Z" fill="#1b4d9b"/>
</svg>
