<svg xmlns="http://www.w3.org/2000/svg" width="20.571" height="20.571" viewBox="0 0 20.571 20.571">
  <path id="Vector" d="M19.433,0a1.1,1.1,0,0,1,.8.335,1.1,1.1,0,0,1,.335.8V19.433a1.143,1.143,0,0,1-1.138,1.138H14.2V12.6h2.665l.4-3.107H14.2V7.513a1.717,1.717,0,0,1,.315-1.125,1.562,1.562,0,0,1,1.225-.375L17.371,6V3.228a17.953,17.953,0,0,0-2.384-.121,3.978,3.978,0,0,0-2.913,1.071,4.049,4.049,0,0,0-1.092,3.027V9.5H8.3V12.6h2.679v7.969H1.138a1.1,1.1,0,0,1-.8-.335,1.1,1.1,0,0,1-.335-.8V1.138a1.1,1.1,0,0,1,.335-.8A1.1,1.1,0,0,1,1.138,0Z" fill="#1b4d9b"/>
</svg>
