<svg xmlns="http://www.w3.org/2000/svg" width="20.571" height="20.571" viewBox="0 0 20.571 20.571">
  <path id="Vector" d="M13.714,10.286a3.429,3.429,0,0,0-3.429-3.429,3.429,3.429,0,0,0-3.429,3.429,3.429,3.429,0,0,0,3.429,3.429,3.429,3.429,0,0,0,3.429-3.429Zm1.848,0a5.259,5.259,0,0,1-5.277,5.277,5.259,5.259,0,0,1-5.277-5.277,5.259,5.259,0,0,1,5.277-5.277,5.259,5.259,0,0,1,5.277,5.277Zm1.446-5.491a1.232,1.232,0,1,1-2.1-.871,1.232,1.232,0,0,1,2.1.871ZM10.286,1.848,9.261,1.842q-.931-.007-1.413,0t-1.292.04a10.613,10.613,0,0,0-1.379.134,5.37,5.37,0,0,0-.958.248A3.506,3.506,0,0,0,2.263,4.219a5.37,5.37,0,0,0-.248.958,10.613,10.613,0,0,0-.134,1.379q-.033.81-.04,1.292t0,1.413q.007.931.007,1.025T1.842,11.31q-.007.931,0,1.413t.04,1.292A10.613,10.613,0,0,0,2.016,15.4a5.37,5.37,0,0,0,.248.958,3.506,3.506,0,0,0,1.955,1.955,5.37,5.37,0,0,0,.958.248,10.613,10.613,0,0,0,1.379.134q.81.033,1.292.04t1.413,0l1.025-.007,1.025.007q.931.007,1.413,0t1.292-.04a10.613,10.613,0,0,0,1.379-.134,5.37,5.37,0,0,0,.958-.248,3.506,3.506,0,0,0,1.955-1.955,5.37,5.37,0,0,0,.248-.958,10.613,10.613,0,0,0,.134-1.379q.033-.81.04-1.292t0-1.413q-.007-.931-.007-1.025t.007-1.025q.007-.931,0-1.413t-.04-1.292a10.613,10.613,0,0,0-.134-1.379,5.37,5.37,0,0,0-.248-.958,3.506,3.506,0,0,0-1.955-1.955,5.37,5.37,0,0,0-.958-.248,10.613,10.613,0,0,0-1.379-.134q-.81-.033-1.292-.04t-1.413,0Zm10.286,8.437q0,3.067-.067,4.246a6.283,6.283,0,0,1-1.661,4.313A6.283,6.283,0,0,1,14.531,20.5q-1.179.067-4.246.067T6.04,20.5a6.283,6.283,0,0,1-4.312-1.661A6.283,6.283,0,0,1,.067,14.531Q0,13.353,0,10.286T.067,6.04A6.283,6.283,0,0,1,1.728,1.728,6.283,6.283,0,0,1,6.04.067Q7.219,0,10.286,0t4.246.067a6.283,6.283,0,0,1,4.313,1.661A6.283,6.283,0,0,1,20.5,6.04Q20.571,7.219,20.571,10.286Z" fill="#1b4d9b"/>
</svg>
